<svg width="25" height="24" viewBox="0 0 25 24" fill="none" xmlns="http://www.w3.org/2000/svg">
<g clip-path="url(#clip0_39_365)">
<path fill-rule="evenodd" clip-rule="evenodd" d="M12.4642 0C5.84833 0 0.5 5.5 0.5 12.3042C0.5 17.7432 3.92686 22.3472 8.68082 23.9767C9.27518 24.0992 9.4929 23.712 9.4929 23.3862C9.4929 23.101 9.47331 22.1232 9.47331 21.1045C6.14514 21.838 5.45208 19.6378 5.45208 19.6378C4.91722 18.2118 4.12473 17.8452 4.12473 17.8452C3.03543 17.0915 4.20408 17.0915 4.20408 17.0915C5.41241 17.173 6.04645 18.3545 6.04645 18.3545C7.11592 20.2285 8.83926 19.699 9.53257 19.373C9.63151 18.5785 9.94865 18.0285 10.2854 17.723C7.63094 17.4377 4.83812 16.3785 4.83812 11.6523C4.83812 10.3078 5.31322 9.20775 6.06604 8.35225C5.94727 8.04675 5.53118 6.7835 6.18506 5.09275C6.18506 5.09275 7.19527 4.76675 9.47306 6.35575C10.4483 6.08642 11.454 5.9494 12.4642 5.94825C13.4744 5.94825 14.5042 6.091 15.4552 6.35575C17.7332 4.76675 18.7434 5.09275 18.7434 5.09275C19.3973 6.7835 18.981 8.04675 18.8622 8.35225C19.6349 9.20775 20.0904 10.3078 20.0904 11.6523C20.0904 16.3785 17.2976 17.4172 14.6233 17.723C15.0592 18.11 15.4353 18.8433 15.4353 20.0045C15.4353 21.6545 15.4158 22.9788 15.4158 23.386C15.4158 23.712 15.6337 24.0992 16.2278 23.977C20.9818 22.347 24.4087 17.7432 24.4087 12.3042C24.4282 5.5 19.0603 0 12.4642 0Z" fill="#24292F"/>
</g>
<defs>
<clipPath id="clip0_39_365">
<rect width="24" height="24" fill="white" transform="translate(0.5)"/>
</clipPath>
</defs>
</svg>
